<svg xmlns="http://www.w3.org/2000/svg" xmlns:xlink="http://www.w3.org/1999/xlink" width="573" zoomAndPan="magnify" viewBox="0 0 429.75 177.000001" height="236" preserveAspectRatio="xMidYMid meet" version="1.0"><defs><g/><clipPath id="d251fd6775"><path d="M 248 0 L 272.953125 0 L 272.953125 101 L 248 101 Z M 248 0 " clip-rule="nonzero"/></clipPath><clipPath id="6b9c9b216e"><path d="M 155.867188 9 L 181 9 L 181 112.613281 L 155.867188 112.613281 Z M 155.867188 9 " clip-rule="nonzero"/></clipPath></defs><path fill="#575658" d="M 237.363281 99.234375 L 237.363281 99.238281 L 237.367188 99.238281 C 237.367188 99.238281 237.363281 99.238281 237.363281 99.234375 Z M 237.363281 99.234375 " fill-opacity="1" fill-rule="evenodd"/><g clip-path="url(#d251fd6775)"><path fill="#fffc00" d="M 260.050781 88.664062 L 260.050781 82.621094 L 264.332031 82.621094 L 264.332031 85.226562 L 266.46875 85.226562 L 266.46875 76.132812 L 270.296875 76.132812 L 270.296875 84.828125 L 273.277344 84.828125 L 273.277344 0 L 248.8125 14.125 L 248.8125 94.519531 L 252.0625 94.519531 L 252.0625 100.046875 L 255.410156 100.046875 L 255.410156 88.664062 Z M 262.28125 70.855469 L 262.28125 64.046875 L 264.792969 64.046875 L 264.792969 70.855469 Z M 270.296875 87.480469 L 270.296875 94.261719 L 273.28125 94.261719 L 273.28125 87.480469 Z M 257.886719 76.59375 L 257.886719 70.769531 L 260.222656 70.769531 L 260.222656 76.59375 Z M 257.886719 76.59375 " fill-opacity="1" fill-rule="evenodd"/></g><path fill="#33ff00" d="M 229.3125 67.082031 L 229.3125 61.039062 L 233.585938 61.039062 L 233.585938 63.644531 L 235.730469 63.644531 L 235.730469 54.558594 L 239.550781 54.558594 L 239.550781 63.253906 L 242.539062 63.253906 L 242.539062 21.71875 L 218.070312 35.839844 L 218.070312 72.941406 L 221.316406 72.941406 L 221.316406 78.464844 L 224.667969 78.464844 L 224.667969 67.082031 Z M 231.539062 49.277344 L 231.539062 42.46875 L 234.046875 42.46875 L 234.046875 49.277344 Z M 239.554688 65.902344 L 239.554688 72.683594 L 242.542969 72.683594 L 242.542969 65.902344 Z M 236.246094 77.175781 L 238.933594 77.175781 L 238.933594 86.046875 L 236.246094 86.046875 Z M 229.433594 88.558594 L 232.929688 88.558594 L 232.929688 92.054688 L 229.433594 92.054688 Z M 229.160156 69.554688 L 232.65625 69.554688 L 232.65625 80.941406 L 229.160156 80.941406 Z M 220.828125 80.132812 L 224.5 80.132812 L 224.5 90.886719 L 220.828125 90.886719 Z M 227.152344 55.011719 L 227.152344 49.1875 L 229.480469 49.1875 L 229.480469 55.011719 Z M 227.152344 55.011719 " fill-opacity="1" fill-rule="evenodd"/><path fill="#00d0ff" d="M 197.847656 97.609375 L 197.847656 91.5625 L 202.128906 91.5625 L 202.128906 94.167969 L 204.265625 94.167969 L 204.265625 85.078125 L 208.09375 85.078125 L 208.09375 93.773438 L 211.074219 93.773438 L 211.074219 27.441406 L 186.609375 41.566406 L 186.609375 103.460938 L 189.859375 103.460938 L 189.859375 108.992188 L 193.207031 108.992188 L 193.207031 97.609375 Z M 200.078125 79.800781 L 200.078125 72.988281 L 202.585938 72.988281 L 202.585938 79.800781 Z M 208.09375 96.425781 L 208.09375 103.207031 L 211.074219 103.207031 L 211.074219 96.425781 Z M 195.683594 85.539062 L 195.683594 79.714844 L 198.019531 79.714844 L 198.019531 85.539062 Z M 195.683594 85.539062 " fill-opacity="1" fill-rule="evenodd"/><g clip-path="url(#6b9c9b216e)"><path fill="#ff0007" d="M 167.109375 87.816406 L 167.109375 81.773438 L 171.382812 81.773438 L 171.382812 84.378906 L 173.527344 84.378906 L 173.527344 75.292969 L 177.347656 75.292969 L 177.347656 83.988281 L 180.335938 83.988281 L 180.335938 9.316406 L 155.867188 23.441406 L 155.867188 93.675781 L 159.113281 93.675781 L 159.113281 99.199219 L 162.460938 99.199219 L 162.460938 87.816406 Z M 169.335938 70.015625 L 169.335938 63.203125 L 171.84375 63.203125 L 171.84375 70.015625 Z M 177.347656 86.636719 L 177.347656 93.417969 L 180.335938 93.417969 L 180.335938 86.636719 Z M 174.042969 97.910156 L 176.730469 97.910156 L 176.730469 106.785156 L 174.042969 106.785156 Z M 167.230469 109.292969 L 170.726562 109.292969 L 170.726562 112.789062 L 167.230469 112.789062 Z M 166.957031 90.289062 L 170.453125 90.289062 L 170.453125 101.675781 L 166.957031 101.675781 Z M 158.621094 100.871094 L 162.296875 100.871094 L 162.296875 111.621094 L 158.621094 111.621094 Z M 164.949219 75.746094 L 164.949219 69.921875 L 167.277344 69.921875 L 167.277344 75.746094 Z M 164.949219 75.746094 " fill-opacity="1" fill-rule="evenodd"/></g><g fill="#002f6e" fill-opacity="1"><g transform="translate(66.327879, 153.604016)"><g><path d="M 0.828125 0 L 0.828125 -4.265625 L 2.71875 -4.265625 L 2.71875 -18.71875 L 0.828125 -18.71875 L 0.828125 -22.953125 L 13.078125 -22.953125 C 15.804688 -22.953125 17.828125 -22.460938 19.140625 -21.484375 C 20.460938 -20.515625 21.125 -19.132812 21.125 -17.34375 C 21.125 -15.957031 20.890625 -14.882812 20.421875 -14.125 C 19.960938 -13.375 19.125 -12.75 17.90625 -12.25 C 19.082031 -11.925781 20.097656 -11.3125 20.953125 -10.40625 C 21.804688 -9.507812 22.234375 -8.265625 22.234375 -6.671875 C 22.234375 -4.347656 21.535156 -2.65625 20.140625 -1.59375 C 18.753906 -0.53125 16.472656 0 13.296875 0 Z M 9.53125 -18.625 L 9.53125 -13.703125 L 11.53125 -13.703125 C 12.40625 -13.703125 12.992188 -13.925781 13.296875 -14.375 C 13.609375 -14.820312 13.765625 -15.4375 13.765625 -16.21875 C 13.765625 -16.988281 13.5625 -17.582031 13.15625 -18 C 12.75 -18.414062 12.226562 -18.625 11.59375 -18.625 Z M 9.53125 -4.265625 L 12.15625 -4.265625 C 12.851562 -4.265625 13.46875 -4.515625 14 -5.015625 C 14.539062 -5.523438 14.8125 -6.21875 14.8125 -7.09375 C 14.8125 -7.925781 14.578125 -8.613281 14.109375 -9.15625 C 13.640625 -9.707031 12.953125 -9.984375 12.046875 -9.984375 L 9.53125 -9.984375 Z M 9.53125 -4.265625 "/></g></g></g><g fill="#002f6e" fill-opacity="1"><g transform="translate(88.887465, 153.604016)"><g><path d="M 14.546875 -5.453125 L 17.3125 -2.265625 C 16.101562 -1.210938 14.8125 -0.472656 13.4375 -0.046875 C 12.070312 0.378906 10.535156 0.59375 8.828125 0.59375 C 7.828125 0.59375 6.8125 0.421875 5.78125 0.078125 C 4.75 -0.253906 3.8125 -0.773438 2.96875 -1.484375 C 2.125 -2.203125 1.445312 -3.125 0.9375 -4.25 C 0.425781 -5.375 0.171875 -6.726562 0.171875 -8.3125 C 0.171875 -10.101562 0.5625 -11.640625 1.34375 -12.921875 C 2.132812 -14.203125 3.195312 -15.179688 4.53125 -15.859375 C 5.863281 -16.535156 7.351562 -16.875 9 -16.875 C 10.945312 -16.875 12.617188 -16.425781 14.015625 -15.53125 C 15.421875 -14.632812 16.363281 -13.5 16.84375 -12.125 C 16.976562 -11.75 17.09375 -11.242188 17.1875 -10.609375 C 17.289062 -9.972656 17.332031 -9.296875 17.3125 -8.578125 C 17.289062 -7.867188 17.160156 -7.195312 16.921875 -6.5625 L 6.5625 -6.5625 C 6.632812 -6.28125 6.753906 -5.925781 6.921875 -5.5 C 7.097656 -5.070312 7.414062 -4.691406 7.875 -4.359375 C 8.34375 -4.035156 9.035156 -3.875 9.953125 -3.875 C 10.523438 -3.875 11.210938 -3.945312 12.015625 -4.09375 C 12.828125 -4.25 13.671875 -4.703125 14.546875 -5.453125 Z M 6.671875 -9.8125 L 11.625 -9.8125 C 11.625 -10.226562 11.5625 -10.640625 11.4375 -11.046875 C 11.320312 -11.453125 11.09375 -11.785156 10.75 -12.046875 C 10.414062 -12.316406 9.898438 -12.453125 9.203125 -12.453125 C 8.546875 -12.453125 8.035156 -12.285156 7.671875 -11.953125 C 7.304688 -11.628906 7.050781 -11.265625 6.90625 -10.859375 C 6.769531 -10.453125 6.691406 -10.101562 6.671875 -9.8125 Z M 6.671875 -9.8125 "/></g></g></g><g fill="#002f6e" fill-opacity="1"><g transform="translate(106.685572, 153.604016)"><g><path d="M 10.9375 0 L 0.828125 0 L 0.828125 -4.296875 L 2.203125 -4.296875 L 2.203125 -12.15625 L 0.828125 -12.15625 L 0.828125 -16.421875 L 7.8125 -16.421875 L 8.578125 -14.390625 C 9.140625 -15.148438 9.800781 -15.773438 10.5625 -16.265625 C 11.332031 -16.765625 12.234375 -17.015625 13.265625 -17.015625 C 14.535156 -17.015625 15.5625 -16.800781 16.34375 -16.375 C 17.132812 -15.945312 17.734375 -15.378906 18.140625 -14.671875 C 18.546875 -13.972656 18.828125 -13.195312 18.984375 -12.34375 C 19.140625 -11.488281 19.21875 -10.632812 19.21875 -9.78125 L 19.21875 -4.296875 L 20.75 -4.296875 L 20.75 0 L 12.484375 0 L 12.484375 -8.96875 C 12.484375 -9.34375 12.460938 -9.769531 12.421875 -10.25 C 12.390625 -10.726562 12.25 -11.140625 12 -11.484375 C 11.75 -11.835938 11.296875 -12.015625 10.640625 -12.015625 C 10.085938 -12.015625 9.660156 -11.851562 9.359375 -11.53125 C 9.054688 -11.21875 8.847656 -10.832031 8.734375 -10.375 C 8.628906 -9.914062 8.578125 -9.445312 8.578125 -8.96875 L 8.578125 -4.296875 L 10.9375 -4.296875 Z M 10.9375 0 "/></g></g></g><g fill="#002f6e" fill-opacity="1"><g transform="translate(127.931645, 153.604016)"><g><path d="M 0.78125 3.84375 L 2.53125 0.203125 C 2.789062 0.421875 3.207031 0.691406 3.78125 1.015625 C 4.363281 1.347656 5.046875 1.644531 5.828125 1.90625 C 6.609375 2.164062 7.414062 2.296875 8.25 2.296875 C 9.226562 2.296875 9.992188 2.128906 10.546875 1.796875 C 11.109375 1.472656 11.5 1.078125 11.71875 0.609375 C 11.9375 0.140625 12.046875 -0.320312 12.046875 -0.78125 L 12.046875 -1.90625 C 11.898438 -1.707031 11.65625 -1.460938 11.3125 -1.171875 C 10.976562 -0.890625 10.550781 -0.640625 10.03125 -0.421875 C 9.519531 -0.203125 8.914062 -0.09375 8.21875 -0.09375 C 6.332031 -0.09375 4.804688 -0.492188 3.640625 -1.296875 C 2.484375 -2.097656 1.640625 -3.117188 1.109375 -4.359375 C 0.585938 -5.609375 0.328125 -6.925781 0.328125 -8.3125 C 0.328125 -10.851562 1.019531 -12.894531 2.40625 -14.4375 C 3.800781 -15.976562 5.859375 -16.75 8.578125 -16.75 C 9.296875 -16.75 9.972656 -16.601562 10.609375 -16.3125 C 11.242188 -16.03125 11.722656 -15.726562 12.046875 -15.40625 L 12.703125 -16.421875 L 20.53125 -16.421875 L 20.53125 -12.125 L 18.5625 -12.125 L 18.5625 -2.296875 C 18.5625 0.421875 17.71875 2.597656 16.03125 4.234375 C 14.34375 5.878906 11.769531 6.710938 8.3125 6.734375 C 7.101562 6.710938 6.007812 6.539062 5.03125 6.21875 C 4.0625 5.90625 3.210938 5.523438 2.484375 5.078125 C 1.765625 4.628906 1.195312 4.21875 0.78125 3.84375 Z M 7.328125 -8.375 C 7.328125 -7.71875 7.425781 -7.078125 7.625 -6.453125 C 7.820312 -5.828125 8.09375 -5.316406 8.4375 -4.921875 C 8.789062 -4.523438 9.207031 -4.328125 9.6875 -4.328125 C 10.320312 -4.328125 10.882812 -4.707031 11.375 -5.46875 C 11.875 -6.226562 12.085938 -7.253906 12.015625 -8.546875 C 12.015625 -9.660156 11.78125 -10.59375 11.3125 -11.34375 C 10.84375 -12.101562 10.289062 -12.484375 9.65625 -12.484375 C 8.976562 -12.484375 8.421875 -12.109375 7.984375 -11.359375 C 7.546875 -10.617188 7.328125 -9.625 7.328125 -8.375 Z M 7.328125 -8.375 "/></g></g></g><g fill="#002f6e" fill-opacity="1"><g transform="translate(148.947858, 153.604016)"><g><path d="M 2.5625 -11.234375 L 1.1875 -15.046875 C 1.625 -15.304688 2.207031 -15.617188 2.9375 -15.984375 C 3.675781 -16.359375 4.507812 -16.679688 5.4375 -16.953125 C 6.363281 -17.234375 7.332031 -17.375 8.34375 -17.375 C 9.320312 -17.375 10.332031 -17.269531 11.375 -17.0625 C 12.414062 -16.851562 13.378906 -16.488281 14.265625 -15.96875 C 15.148438 -15.457031 15.867188 -14.765625 16.421875 -13.890625 C 16.972656 -13.015625 17.25 -11.921875 17.25 -10.609375 L 17.25 -4.203125 L 19.21875 -4.203125 L 19.21875 0 L 12.1875 0 L 11.390625 -1.484375 C 11.003906 -0.929688 10.535156 -0.5 9.984375 -0.1875 C 9.429688 0.113281 8.882812 0.320312 8.34375 0.4375 C 7.8125 0.5625 7.351562 0.625 6.96875 0.625 C 5.9375 0.625 4.921875 0.429688 3.921875 0.046875 C 2.929688 -0.335938 2.113281 -0.929688 1.46875 -1.734375 C 0.820312 -2.546875 0.5 -3.585938 0.5 -4.859375 C 0.5 -6.109375 0.804688 -7.179688 1.421875 -8.078125 C 2.046875 -8.972656 2.878906 -9.664062 3.921875 -10.15625 C 4.960938 -10.65625 6.097656 -10.90625 7.328125 -10.90625 C 8.285156 -10.90625 9.039062 -10.738281 9.59375 -10.40625 C 10.15625 -10.082031 10.484375 -9.863281 10.578125 -9.75 L 10.578125 -10.90625 C 10.578125 -11.644531 10.28125 -12.132812 9.6875 -12.375 C 9.09375 -12.625 8.347656 -12.75 7.453125 -12.75 C 6.492188 -12.75 5.597656 -12.582031 4.765625 -12.25 C 3.929688 -11.925781 3.195312 -11.585938 2.5625 -11.234375 Z M 10.578125 -4.734375 L 10.578125 -5.984375 C 10.535156 -6.066406 10.375 -6.242188 10.09375 -6.515625 C 9.820312 -6.796875 9.335938 -6.9375 8.640625 -6.9375 C 7.984375 -6.9375 7.5 -6.769531 7.1875 -6.4375 C 6.882812 -6.101562 6.734375 -5.6875 6.734375 -5.1875 C 6.734375 -4.726562 6.898438 -4.351562 7.234375 -4.0625 C 7.578125 -3.78125 7.988281 -3.640625 8.46875 -3.640625 C 8.976562 -3.640625 9.414062 -3.757812 9.78125 -4 C 10.15625 -4.25 10.421875 -4.492188 10.578125 -4.734375 Z M 10.578125 -4.734375 "/></g></g></g><g fill="#002f6e" fill-opacity="1"><g transform="translate(168.650557, 153.604016)"><g><path d="M 10.40625 0 L 0.828125 0 L 0.828125 -4.296875 L 2.234375 -4.296875 L 2.234375 -20.390625 L 0.859375 -20.390625 L 0.859375 -24.640625 L 8.46875 -24.640625 L 8.46875 -4.296875 L 10.40625 -4.296875 Z M 10.40625 0 "/></g></g></g><g fill="#002f6e" fill-opacity="1"><g transform="translate(179.552723, 153.604016)"><g><path d="M 0.5 -16.421875 L 8.4375 -16.421875 L 8.4375 -8.5 C 8.4375 -7.101562 8.5625 -6.066406 8.8125 -5.390625 C 9.070312 -4.710938 9.539062 -4.375 10.21875 -4.375 C 10.78125 -4.375 11.265625 -4.601562 11.671875 -5.0625 C 12.078125 -5.519531 12.28125 -6.117188 12.28125 -6.859375 L 12.28125 -12.09375 L 10.109375 -12.09375 L 10.109375 -16.421875 L 18.625 -16.421875 L 18.625 -4.375 L 20.234375 -4.375 L 20.234375 0 L 14.03125 0 L 13.140625 -2.0625 C 12.898438 -1.800781 12.59375 -1.46875 12.21875 -1.0625 C 11.84375 -0.65625 11.359375 -0.300781 10.765625 0 C 10.179688 0.300781 9.414062 0.453125 8.46875 0.453125 C 6 0.453125 4.28125 -0.203125 3.3125 -1.515625 C 2.351562 -2.828125 1.875 -4.835938 1.875 -7.546875 L 1.875 -12.09375 L 0.5 -12.09375 Z M 0.5 -16.421875 "/></g></g></g><g fill="#002f6e" fill-opacity="1"><g transform="translate(200.273391, 153.604016)"><g><path d="M 10.109375 0 L 0.828125 0 L 0.828125 -4.296875 L 2.265625 -4.296875 L 2.265625 -12.15625 L 0.859375 -12.15625 L 0.859375 -16.421875 L 7.03125 -16.421875 L 8.015625 -14.3125 C 8.296875 -14.84375 8.609375 -15.332031 8.953125 -15.78125 C 9.304688 -16.226562 9.804688 -16.582031 10.453125 -16.84375 C 11.097656 -17.113281 11.984375 -17.25 13.109375 -17.25 L 13.109375 -11.328125 C 11.640625 -11.328125 10.5 -11.082031 9.6875 -10.59375 C 8.875 -10.101562 8.46875 -9.132812 8.46875 -7.6875 L 8.46875 -4.296875 L 10.109375 -4.296875 Z M 10.109375 0 "/></g></g></g><g fill="#002f6e" fill-opacity="1"><g transform="translate(213.868256, 153.604016)"><g><path d="M 0.5 -16.421875 L 8.4375 -16.421875 L 8.4375 -8.5 C 8.4375 -7.101562 8.5625 -6.066406 8.8125 -5.390625 C 9.070312 -4.710938 9.539062 -4.375 10.21875 -4.375 C 10.78125 -4.375 11.265625 -4.601562 11.671875 -5.0625 C 12.078125 -5.519531 12.28125 -6.117188 12.28125 -6.859375 L 12.28125 -12.09375 L 10.109375 -12.09375 L 10.109375 -16.421875 L 18.625 -16.421875 L 18.625 -4.375 L 20.234375 -4.375 L 20.234375 0 L 14.03125 0 L 13.140625 -2.0625 C 12.898438 -1.800781 12.59375 -1.46875 12.21875 -1.0625 C 11.84375 -0.65625 11.359375 -0.300781 10.765625 0 C 10.179688 0.300781 9.414062 0.453125 8.46875 0.453125 C 6 0.453125 4.28125 -0.203125 3.3125 -1.515625 C 2.351562 -2.828125 1.875 -4.835938 1.875 -7.546875 L 1.875 -12.09375 L 0.5 -12.09375 Z M 0.5 -16.421875 "/></g></g></g><g fill="#002f6e" fill-opacity="1"><g transform="translate(234.588923, 153.604016)"><g/></g></g><g fill="#002f6e" fill-opacity="1"><g transform="translate(242.798379, 153.604016)"><g><path d="M 0.828125 0 L 0.828125 -8.28125 L 6.9375 -8.28125 C 6.9375 -7.601562 7.082031 -7.050781 7.375 -6.625 C 7.664062 -6.195312 8.035156 -5.863281 8.484375 -5.625 C 8.929688 -5.394531 9.382812 -5.238281 9.84375 -5.15625 C 10.3125 -5.070312 10.71875 -5.019531 11.0625 -5 C 11.457031 -5 11.867188 -5.035156 12.296875 -5.109375 C 12.722656 -5.179688 13.085938 -5.335938 13.390625 -5.578125 C 13.703125 -5.816406 13.859375 -6.171875 13.859375 -6.640625 C 13.859375 -7.003906 13.628906 -7.304688 13.171875 -7.546875 C 12.710938 -7.796875 12.109375 -8.03125 11.359375 -8.25 C 10.617188 -8.46875 9.796875 -8.703125 8.890625 -8.953125 C 7.992188 -9.203125 7.097656 -9.507812 6.203125 -9.875 C 5.304688 -10.25 4.484375 -10.726562 3.734375 -11.3125 C 2.992188 -11.894531 2.394531 -12.601562 1.9375 -13.4375 C 1.476562 -14.269531 1.25 -15.285156 1.25 -16.484375 C 1.25 -17.710938 1.5 -18.769531 2 -19.65625 C 2.507812 -20.539062 3.160156 -21.265625 3.953125 -21.828125 C 4.753906 -22.398438 5.601562 -22.828125 6.5 -23.109375 C 7.394531 -23.398438 8.25 -23.546875 9.0625 -23.546875 C 10.445312 -23.546875 11.769531 -23.289062 13.03125 -22.78125 C 14.300781 -22.28125 15.265625 -21.421875 15.921875 -20.203125 L 16.25 -22.953125 L 21.90625 -22.953125 L 21.90625 -14.71875 L 15.96875 -14.71875 C 15.96875 -15.9375 15.554688 -16.875 14.734375 -17.53125 C 13.910156 -18.195312 12.921875 -18.53125 11.765625 -18.53125 C 11.273438 -18.53125 10.769531 -18.378906 10.25 -18.078125 C 9.738281 -17.785156 9.484375 -17.351562 9.484375 -16.78125 C 9.484375 -16.300781 9.71875 -15.890625 10.1875 -15.546875 C 10.664062 -15.210938 11.289062 -14.898438 12.0625 -14.609375 C 12.84375 -14.328125 13.691406 -14.035156 14.609375 -13.734375 C 15.535156 -13.441406 16.457031 -13.097656 17.375 -12.703125 C 18.289062 -12.316406 19.132812 -11.847656 19.90625 -11.296875 C 20.6875 -10.753906 21.3125 -10.085938 21.78125 -9.296875 C 22.257812 -8.503906 22.5 -7.5625 22.5 -6.46875 C 22.5 -5.195312 22.234375 -4.113281 21.703125 -3.21875 C 21.179688 -2.320312 20.488281 -1.601562 19.625 -1.0625 C 18.757812 -0.53125 17.816406 -0.140625 16.796875 0.109375 C 15.773438 0.367188 14.773438 0.5 13.796875 0.5 C 12.128906 0.5 10.722656 0.179688 9.578125 -0.453125 C 8.441406 -1.085938 7.5625 -1.78125 6.9375 -2.53125 L 6.5625 0 Z M 0.828125 0 "/></g></g></g><g fill="#002f6e" fill-opacity="1"><g transform="translate(266.113242, 153.604016)"><g><path d="M 11.140625 0 L 0.828125 0 L 0.828125 -4.296875 L 2.203125 -4.296875 L 2.203125 -20.359375 L 0.828125 -20.359375 L 0.828125 -24.640625 L 8.765625 -24.640625 L 8.765625 -14.390625 C 8.898438 -14.585938 9.222656 -14.898438 9.734375 -15.328125 C 10.253906 -15.753906 10.882812 -16.140625 11.625 -16.484375 C 12.375 -16.835938 13.140625 -17.015625 13.921875 -17.015625 C 15.191406 -17.015625 16.207031 -16.800781 16.96875 -16.375 C 17.738281 -15.945312 18.316406 -15.378906 18.703125 -14.671875 C 19.085938 -13.972656 19.34375 -13.195312 19.46875 -12.34375 C 19.601562 -11.488281 19.671875 -10.632812 19.671875 -9.78125 L 19.671875 -4.296875 L 21.21875 -4.296875 L 21.21875 0 L 12.78125 0 L 12.78125 -8.9375 C 12.78125 -9.300781 12.75 -9.722656 12.6875 -10.203125 C 12.632812 -10.691406 12.476562 -11.109375 12.21875 -11.453125 C 11.957031 -11.804688 11.5 -11.984375 10.84375 -11.984375 C 10.289062 -11.984375 9.859375 -11.820312 9.546875 -11.5 C 9.242188 -11.1875 9.035156 -10.800781 8.921875 -10.34375 C 8.816406 -9.882812 8.765625 -9.414062 8.765625 -8.9375 L 8.765625 -4.296875 L 11.140625 -4.296875 Z M 11.140625 0 "/></g></g></g><g fill="#002f6e" fill-opacity="1"><g transform="translate(287.819047, 153.604016)"><g><path d="M 2.5625 -11.234375 L 1.1875 -15.046875 C 1.625 -15.304688 2.207031 -15.617188 2.9375 -15.984375 C 3.675781 -16.359375 4.507812 -16.679688 5.4375 -16.953125 C 6.363281 -17.234375 7.332031 -17.375 8.34375 -17.375 C 9.320312 -17.375 10.332031 -17.269531 11.375 -17.0625 C 12.414062 -16.851562 13.378906 -16.488281 14.265625 -15.96875 C 15.148438 -15.457031 15.867188 -14.765625 16.421875 -13.890625 C 16.972656 -13.015625 17.25 -11.921875 17.25 -10.609375 L 17.25 -4.203125 L 19.21875 -4.203125 L 19.21875 0 L 12.1875 0 L 11.390625 -1.484375 C 11.003906 -0.929688 10.535156 -0.5 9.984375 -0.1875 C 9.429688 0.113281 8.882812 0.320312 8.34375 0.4375 C 7.8125 0.5625 7.351562 0.625 6.96875 0.625 C 5.9375 0.625 4.921875 0.429688 3.921875 0.046875 C 2.929688 -0.335938 2.113281 -0.929688 1.46875 -1.734375 C 0.820312 -2.546875 0.5 -3.585938 0.5 -4.859375 C 0.5 -6.109375 0.804688 -7.179688 1.421875 -8.078125 C 2.046875 -8.972656 2.878906 -9.664062 3.921875 -10.15625 C 4.960938 -10.65625 6.097656 -10.90625 7.328125 -10.90625 C 8.285156 -10.90625 9.039062 -10.738281 9.59375 -10.40625 C 10.15625 -10.082031 10.484375 -9.863281 10.578125 -9.75 L 10.578125 -10.90625 C 10.578125 -11.644531 10.28125 -12.132812 9.6875 -12.375 C 9.09375 -12.625 8.347656 -12.75 7.453125 -12.75 C 6.492188 -12.75 5.597656 -12.582031 4.765625 -12.25 C 3.929688 -11.925781 3.195312 -11.585938 2.5625 -11.234375 Z M 10.578125 -4.734375 L 10.578125 -5.984375 C 10.535156 -6.066406 10.375 -6.242188 10.09375 -6.515625 C 9.820312 -6.796875 9.335938 -6.9375 8.640625 -6.9375 C 7.984375 -6.9375 7.5 -6.769531 7.1875 -6.4375 C 6.882812 -6.101562 6.734375 -5.6875 6.734375 -5.1875 C 6.734375 -4.726562 6.898438 -4.351562 7.234375 -4.0625 C 7.578125 -3.78125 7.988281 -3.640625 8.46875 -3.640625 C 8.976562 -3.640625 9.414062 -3.757812 9.78125 -4 C 10.15625 -4.25 10.421875 -4.492188 10.578125 -4.734375 Z M 10.578125 -4.734375 "/></g></g></g><g fill="#002f6e" fill-opacity="1"><g transform="translate(307.521757, 153.604016)"><g><path d="M 12.09375 -20.359375 L 10.578125 -20.359375 L 10.578125 -24.640625 L 18.75 -24.640625 L 18.75 -4.265625 L 20.328125 -4.265625 L 20.328125 0 L 12.640625 0 L 12.09375 -1.21875 C 11.957031 -1.082031 11.703125 -0.894531 11.328125 -0.65625 C 10.953125 -0.414062 10.484375 -0.195312 9.921875 0 C 9.367188 0.195312 8.710938 0.296875 7.953125 0.296875 C 6.421875 0.296875 5.078125 -0.109375 3.921875 -0.921875 C 2.773438 -1.734375 1.890625 -2.800781 1.265625 -4.125 C 0.640625 -5.445312 0.328125 -6.863281 0.328125 -8.375 C 0.328125 -10.082031 0.679688 -11.566406 1.390625 -12.828125 C 2.109375 -14.085938 3.046875 -15.054688 4.203125 -15.734375 C 5.359375 -16.410156 6.609375 -16.75 7.953125 -16.75 C 9.109375 -16.75 10.007812 -16.585938 10.65625 -16.265625 C 11.300781 -15.953125 11.78125 -15.695312 12.09375 -15.5 Z M 7.390625 -8.375 C 7.390625 -7.71875 7.488281 -7.078125 7.6875 -6.453125 C 7.882812 -5.828125 8.15625 -5.316406 8.5 -4.921875 C 8.851562 -4.523438 9.269531 -4.328125 9.75 -4.328125 C 10.382812 -4.328125 10.945312 -4.707031 11.4375 -5.46875 C 11.9375 -6.226562 12.15625 -7.253906 12.09375 -8.546875 C 12.09375 -9.660156 11.851562 -10.59375 11.375 -11.34375 C 10.90625 -12.101562 10.351562 -12.484375 9.71875 -12.484375 C 9.039062 -12.484375 8.484375 -12.109375 8.046875 -11.359375 C 7.609375 -10.617188 7.390625 -9.625 7.390625 -8.375 Z M 7.390625 -8.375 "/></g></g></g><g fill="#002f6e" fill-opacity="1"><g transform="translate(328.34094, 153.604016)"><g><path d="M 14.546875 -5.453125 L 17.3125 -2.265625 C 16.101562 -1.210938 14.8125 -0.472656 13.4375 -0.046875 C 12.070312 0.378906 10.535156 0.59375 8.828125 0.59375 C 7.828125 0.59375 6.8125 0.421875 5.78125 0.078125 C 4.75 -0.253906 3.8125 -0.773438 2.96875 -1.484375 C 2.125 -2.203125 1.445312 -3.125 0.9375 -4.25 C 0.425781 -5.375 0.171875 -6.726562 0.171875 -8.3125 C 0.171875 -10.101562 0.5625 -11.640625 1.34375 -12.921875 C 2.132812 -14.203125 3.195312 -15.179688 4.53125 -15.859375 C 5.863281 -16.535156 7.351562 -16.875 9 -16.875 C 10.945312 -16.875 12.617188 -16.425781 14.015625 -15.53125 C 15.421875 -14.632812 16.363281 -13.5 16.84375 -12.125 C 16.976562 -11.75 17.09375 -11.242188 17.1875 -10.609375 C 17.289062 -9.972656 17.332031 -9.296875 17.3125 -8.578125 C 17.289062 -7.867188 17.160156 -7.195312 16.921875 -6.5625 L 6.5625 -6.5625 C 6.632812 -6.28125 6.753906 -5.925781 6.921875 -5.5 C 7.097656 -5.070312 7.414062 -4.691406 7.875 -4.359375 C 8.34375 -4.035156 9.035156 -3.875 9.953125 -3.875 C 10.523438 -3.875 11.210938 -3.945312 12.015625 -4.09375 C 12.828125 -4.25 13.671875 -4.703125 14.546875 -5.453125 Z M 6.671875 -9.8125 L 11.625 -9.8125 C 11.625 -10.226562 11.5625 -10.640625 11.4375 -11.046875 C 11.320312 -11.453125 11.09375 -11.785156 10.75 -12.046875 C 10.414062 -12.316406 9.898438 -12.453125 9.203125 -12.453125 C 8.546875 -12.453125 8.035156 -12.285156 7.671875 -11.953125 C 7.304688 -11.628906 7.050781 -11.265625 6.90625 -10.859375 C 6.769531 -10.453125 6.691406 -10.101562 6.671875 -9.8125 Z M 6.671875 -9.8125 "/></g></g></g><g fill="#002f6e" fill-opacity="1"><g transform="translate(346.139059, 153.604016)"><g><path d="M 0.5 0 L 0.5 -5.90625 L 4.890625 -5.90625 C 4.890625 -5.34375 5.113281 -4.894531 5.5625 -4.5625 C 6.007812 -4.238281 6.503906 -4.015625 7.046875 -3.890625 C 7.597656 -3.773438 8.039062 -3.71875 8.375 -3.71875 C 8.707031 -3.71875 9.03125 -3.785156 9.34375 -3.921875 C 9.65625 -4.066406 9.8125 -4.367188 9.8125 -4.828125 C 9.8125 -5.160156 9.570312 -5.414062 9.09375 -5.59375 C 8.613281 -5.78125 8.003906 -5.960938 7.265625 -6.140625 C 6.535156 -6.316406 5.78125 -6.535156 5 -6.796875 C 4.25 -7.054688 3.539062 -7.398438 2.875 -7.828125 C 2.207031 -8.253906 1.664062 -8.804688 1.25 -9.484375 C 0.832031 -10.171875 0.625 -11.023438 0.625 -12.046875 C 0.625 -12.878906 0.804688 -13.597656 1.171875 -14.203125 C 1.546875 -14.804688 2.03125 -15.296875 2.625 -15.671875 C 3.21875 -16.054688 3.847656 -16.34375 4.515625 -16.53125 C 5.179688 -16.71875 5.8125 -16.8125 6.40625 -16.8125 C 7.519531 -16.8125 8.523438 -16.5625 9.421875 -16.0625 C 10.316406 -15.5625 10.941406 -14.957031 11.296875 -14.25 L 11.5625 -16.421875 L 15.59375 -16.421875 L 15.59375 -10.515625 L 11.328125 -10.515625 C 11.328125 -10.972656 11.160156 -11.382812 10.828125 -11.75 C 10.503906 -12.125 10.082031 -12.425781 9.5625 -12.65625 C 9.050781 -12.882812 8.523438 -13 7.984375 -13 C 7.628906 -13 7.328125 -12.90625 7.078125 -12.71875 C 6.828125 -12.539062 6.703125 -12.242188 6.703125 -11.828125 C 6.703125 -11.515625 6.890625 -11.253906 7.265625 -11.046875 C 7.648438 -10.835938 8.148438 -10.632812 8.765625 -10.4375 C 9.378906 -10.25 10.035156 -10.03125 10.734375 -9.78125 C 11.566406 -9.5 12.390625 -9.171875 13.203125 -8.796875 C 14.015625 -8.429688 14.6875 -7.914062 15.21875 -7.25 C 15.757812 -6.59375 16.03125 -5.6875 16.03125 -4.53125 C 16.03125 -3.5 15.738281 -2.613281 15.15625 -1.875 C 14.570312 -1.144531 13.820312 -0.582031 12.90625 -0.1875 C 11.988281 0.195312 10.992188 0.390625 9.921875 0.390625 C 8.734375 0.390625 7.695312 0.144531 6.8125 -0.34375 C 5.925781 -0.832031 5.285156 -1.382812 4.890625 -2 L 4.59375 0 Z M 0.5 0 "/></g></g></g></svg>